<svg width="83" height="23" viewBox="0 0 83 23" fill="none" xmlns="http://www.w3.org/2000/svg">
<path d="M0.13 22V0.849999H4.78V18.07H14.56V22H0.13ZM25.9654 22.33C23.8854 22.33 22.0554 21.88 20.4754 20.98C18.9154 20.06 17.6954 18.79 16.8154 17.17C15.9554 15.53 15.5254 13.61 15.5254 11.41C15.5254 9.21 15.9554 7.3 16.8154 5.68C17.6954 4.04 18.9154 2.77 20.4754 1.87C22.0354 0.97 23.8654 0.519999 25.9654 0.519999C28.0654 0.519999 29.8954 0.97 31.4554 1.87C33.0354 2.77 34.2554 4.04 35.1154 5.68C35.9954 7.3 36.4354 9.2 36.4354 11.38C36.4354 13.58 35.9954 15.5 35.1154 17.14C34.2554 18.78 33.0354 20.06 31.4554 20.98C29.8954 21.88 28.0654 22.33 25.9654 22.33ZM25.9654 18.37C27.7254 18.37 29.0954 17.76 30.0754 16.54C31.0754 15.3 31.5754 13.59 31.5754 11.41C31.5754 9.21 31.0854 7.51 30.1054 6.31C29.1254 5.09 27.7454 4.48 25.9654 4.48C24.2254 4.48 22.8554 5.09 21.8554 6.31C20.8754 7.51 20.3854 9.21 20.3854 11.41C20.3854 13.59 20.8754 15.3 21.8554 16.54C22.8554 17.76 24.2254 18.37 25.9654 18.37ZM50.5023 22.33C48.1223 22.33 46.1023 21.88 44.4423 20.98C42.8023 20.08 41.5523 18.82 40.6923 17.2C39.8323 15.58 39.4023 13.68 39.4023 11.5C39.4023 9.26 39.8423 7.32 40.7223 5.68C41.6223 4.04 42.9123 2.77 44.5923 1.87C46.2723 0.97 48.2923 0.519999 50.6523 0.519999C52.1323 0.519999 53.5323 0.729999 54.8523 1.15C56.1923 1.57 57.2823 2.13 58.1223 2.83L56.6223 6.46C55.7023 5.78 54.7623 5.3 53.8023 5.02C52.8423 4.72 51.8023 4.57 50.6823 4.57C48.5423 4.57 46.9323 5.17 45.8523 6.37C44.7923 7.55 44.2623 9.26 44.2623 11.5C44.2623 13.76 44.8023 15.47 45.8823 16.63C46.9823 17.79 48.6023 18.37 50.7423 18.37C51.8823 18.37 53.0823 18.19 54.3423 17.83V13.69H49.7823V10.33H58.1823V20.71C57.1423 21.23 55.9423 21.63 54.5823 21.91C53.2223 22.19 51.8623 22.33 50.5023 22.33ZM72.108 22.33C70.028 22.33 68.198 21.88 66.618 20.98C65.058 20.06 63.838 18.79 62.958 17.17C62.098 15.53 61.668 13.61 61.668 11.41C61.668 9.21 62.098 7.3 62.958 5.68C63.838 4.04 65.058 2.77 66.618 1.87C68.178 0.97 70.008 0.519999 72.108 0.519999C74.208 0.519999 76.038 0.97 77.598 1.87C79.178 2.77 80.398 4.04 81.258 5.68C82.138 7.3 82.578 9.2 82.578 11.38C82.578 13.58 82.138 15.5 81.258 17.14C80.398 18.78 79.178 20.06 77.598 20.98C76.038 21.88 74.208 22.33 72.108 22.33ZM72.108 18.37C73.868 18.37 75.238 17.76 76.218 16.54C77.218 15.3 77.718 13.59 77.718 11.41C77.718 9.21 77.228 7.51 76.248 6.31C75.268 5.09 73.888 4.48 72.108 4.48C70.368 4.48 68.998 5.09 67.998 6.31C67.018 7.51 66.528 9.21 66.528 11.41C66.528 13.59 67.018 15.3 67.998 16.54C68.998 17.76 70.368 18.37 72.108 18.37Z" fill="white"/>
</svg>
